<?xml version="1.0" standalone="no"?>
<!DOCTYPE svg PUBLIC "-//W3C//DTD SVG 20010904//EN"
 "http://www.w3.org/TR/2001/REC-SVG-20010904/DTD/svg10.dtd">
<svg version="1.0" xmlns="http://www.w3.org/2000/svg"
 width="400.000000pt" height="200.000000pt" viewBox="0 0 400.000000 200.000000"
 preserveAspectRatio="xMidYMid meet">
<metadata>
Created by potrace 1.16, written by Peter Selinger 2001-2019
</metadata>
<g transform="translate(0.000000,200.000000) scale(0.178571,-0.089286)"
fill="#000000" stroke="none">
<path d="M323 1782 c-13 -8 -32 -737 -20 -784 5 -19 28 -38 88 -72 85 -48 123
-57 133 -30 3 9 6 115 6 235 0 124 4 228 10 238 20 38 41 33 188 -51 80 -45
153 -81 161 -81 9 1 80 38 159 83 139 80 143 82 167 66 25 -16 25 -19 25 -149
l0 -132 -175 -100 -175 -99 0 -126 c0 -69 4 -130 8 -136 14 -22 453 -266 468
-260 32 12 559 320 566 330 12 17 10 494 -2 517 -15 28 -45 24 -119 -17 -107
-60 -101 -46 -101 -213 0 -80 -4 -151 -8 -158 -6 -10 -306 -188 -338 -200 -20
-7 -192 94 -199 118 -10 30 12 49 153 129 70 40 133 80 140 88 16 20 18 763 2
793 -6 10 -19 19 -30 19 -10 0 -132 -65 -270 -145 -138 -80 -261 -145 -273
-145 -12 0 -135 65 -274 145 -139 80 -258 145 -265 145 -7 0 -18 -4 -25 -8z"/>
<path d="M1805 1742 l-80 -48 0 -115 c0 -111 1 -114 23 -117 26 -4 177 81 186
104 3 9 6 55 6 104 0 67 -4 92 -16 104 -23 23 -31 21 -119 -32z"/>
</g>
</svg>
