<?xml version="1.0" encoding="utf-8"?><svg version="1.1" id="Layer_1" xmlns="http://www.w3.org/2000/svg" xmlns:xlink="http://www.w3.org/1999/xlink" x="0px" y="0px" viewBox="0 0 122.88 42.64" style="enable-background:new 0 0 122.88 42.64" xml:space="preserve"><g><path d="M20.76,4.44C16.22,4.59,12.14,6.53,9.2,9.57c-2.94,3.04-4.74,7.18-4.74,11.74c0,4.66,1.89,8.88,4.94,11.93 c3.05,3.05,7.27,4.94,11.93,4.94c3.83,0,7.36-1.27,10.19-3.42c-2.99-3.67-4.78-8.35-4.78-13.45c0-5.09,1.79-9.78,4.78-13.45 c-2.69-2.04-6.01-3.3-9.63-3.42L20.76,4.44L20.76,4.44z M6,6.49C9.72,2.65,14.87,0.19,20.62,0l1.41,0c4.8,0.16,9.18,1.9,12.66,4.7 c3.48-2.8,7.87-4.54,12.66-4.7l1.41,0c4.8,0.16,9.18,1.9,12.66,4.7C64.92,1.9,69.31,0.16,74.1,0l1.41,0 c4.8,0.16,9.18,1.9,12.66,4.7c3.48-2.8,7.87-4.54,12.66-4.7l1.41,0c5.75,0.19,10.91,2.65,14.62,6.49c3.72,3.84,6,9.07,6,14.82 c0,5.89-2.39,11.22-6.25,15.08c-3.86,3.86-9.19,6.25-15.08,6.25c-5.06,0-9.71-1.76-13.37-4.71c-3.66,2.95-8.31,4.71-13.37,4.71 c-5.06,0-9.71-1.76-13.37-4.71c-3.66,2.95-8.31,4.71-13.37,4.71s-9.71-1.76-13.37-4.71c-3.66,2.95-8.31,4.71-13.37,4.71 c-5.89,0-11.22-2.39-15.08-6.25C2.39,32.53,0,27.2,0,21.31C0,15.56,2.28,10.33,6,6.49L6,6.49z M34.7,31.6 c2.2-2.85,3.5-6.42,3.5-10.29c0-3.87-1.3-7.45-3.5-10.3c-2.2,2.85-3.5,6.43-3.5,10.3C31.2,25.18,32.5,28.75,34.7,31.6L34.7,31.6z M42.66,21.31c0,5.1-1.79,9.78-4.78,13.45c2.83,2.15,6.36,3.42,10.19,3.42c3.83,0,7.36-1.27,10.19-3.42 c-2.99-3.67-4.78-8.35-4.78-13.45c0-5.09,1.79-9.78,4.78-13.45c-2.69-2.04-6.01-3.3-9.63-3.42l-1.14,0 c-3.62,0.12-6.94,1.38-9.63,3.42C40.87,11.53,42.66,16.22,42.66,21.31L42.66,21.31z M61.44,31.6c2.19-2.85,3.5-6.42,3.5-10.29 c0-3.87-1.3-7.45-3.5-10.3c-2.2,2.85-3.5,6.43-3.5,10.3C57.94,25.18,59.24,28.75,61.44,31.6L61.44,31.6z M69.4,21.31 c0,5.1-1.79,9.78-4.78,13.45c2.83,2.15,6.36,3.42,10.19,3.42c3.83,0,7.36-1.27,10.19-3.42c-2.99-3.67-4.78-8.35-4.78-13.45 c0-5.09,1.79-9.78,4.78-13.45c-2.69-2.04-6.01-3.3-9.63-3.42l-1.14,0c-3.62,0.12-6.94,1.38-9.63,3.42 C67.61,11.53,69.4,16.22,69.4,21.31L69.4,21.31z M88.18,31.6c2.2-2.85,3.5-6.42,3.5-10.29c0-3.87-1.3-7.45-3.5-10.3 c-2.2,2.85-3.5,6.43-3.5,10.3C84.68,25.18,85.99,28.75,88.18,31.6L88.18,31.6z M96.14,21.31c0,5.1-1.79,9.78-4.78,13.45 c2.83,2.15,6.36,3.42,10.19,3.42c4.66,0,8.88-1.89,11.93-4.94c3.05-3.05,4.94-7.27,4.94-11.93c0-4.55-1.8-8.7-4.75-11.74 s-7.02-4.98-11.56-5.13l-1.14,0c-3.62,0.12-6.94,1.38-9.63,3.42C94.35,11.53,96.14,16.22,96.14,21.31L96.14,21.31z"/></g></svg>