<?xml version="1.0" encoding="utf-8"?><svg version="1.1" id="Layer_1" xmlns="http://www.w3.org/2000/svg" xmlns:xlink="http://www.w3.org/1999/xlink" x="0px" y="0px" viewBox="0 0 122.26 122.26" style="enable-background:new 0 0 122.26 122.26" xml:space="preserve"><style type="text/css"><![CDATA[
	.st0{fill:#001E50;}
]]></style><g><path class="st0" d="M61.13,116.64c-30.44,0-55.38-25.06-55.38-55.51c0-6.85,1.22-13.33,3.55-19.44l32.4,65.16 c0.37,0.86,0.98,1.59,1.96,1.59s1.59-0.73,1.96-1.59l14.92-33.38c0.12-0.37,0.37-0.73,0.73-0.73c0.37,0,0.49,0.37,0.73,0.73 l14.92,33.38c0.37,0.86,0.98,1.59,1.96,1.59c0.98,0,1.59-0.73,1.96-1.59l32.4-65.16c2.32,6.11,3.55,12.59,3.55,19.44 C116.51,91.57,91.57,116.64,61.13,116.64L61.13,116.64z M61.13,48.54c-0.37,0-0.49-0.37-0.73-0.73L43.04,8.68 C48.66,6.6,54.77,5.5,61.13,5.5c6.36,0,12.47,1.1,18.09,3.18L61.86,47.8C61.62,48.29,61.5,48.54,61.13,48.54L61.13,48.54z M43.4,88.76c-0.37,0-0.49-0.37-0.73-0.73L14.55,31.3c5.01-7.7,11.74-14.18,19.93-18.71l20.3,45.11c0.24,0.73,0.86,0.98,1.47,0.98 h9.78c0.73,0,1.22-0.12,1.59-0.98l20.29-45.11c8.07,4.52,14.92,11,19.93,18.71L79.47,88.03c-0.12,0.37-0.37,0.73-0.73,0.73 c-0.37,0-0.49-0.37-0.73-0.73L67.37,63.82c-0.37-0.86-0.86-0.98-1.59-0.98H56c-0.73,0-1.22,0.12-1.59,0.98L44.14,88.03 C44.01,88.39,43.77,88.76,43.4,88.76L43.4,88.76z M61.13,122.26c33.87,0,61.13-27.26,61.13-61.13S95,0,61.13,0 C27.26,0,0,27.26,0,61.13S27.26,122.26,61.13,122.26L61.13,122.26z"/></g></svg>